<mxfile host="Electron" modified="2024-06-23T14:07:01.987Z" agent="Mozilla/5.0 (Windows NT 10.0; Win64; x64) AppleWebKit/537.36 (KHTML, like Gecko) draw.io/24.5.3 Chrome/124.0.6367.207 Electron/30.0.6 Safari/537.36" etag="GtRNwzCydQVGxlOJtBuR" version="24.5.3" type="device">
  <diagram name="Page-1" id="C9R8yVy7o6P9EM0zdbTp">
    <mxGraphModel dx="1326" dy="780" grid="1" gridSize="10" guides="1" tooltips="1" connect="1" arrows="1" fold="1" page="1" pageScale="1" pageWidth="850" pageHeight="1100" math="0" shadow="0">
      <root>
        <mxCell id="0" />
        <mxCell id="1" parent="0" />
        <mxCell id="qgYlGUagVhwyhiTYEvKE-1" value="kubernetis&lt;div&gt;&lt;br&gt;&lt;/div&gt;" style="text;html=1;align=center;verticalAlign=middle;resizable=0;points=[];autosize=1;strokeColor=none;fillColor=none;" vertex="1" parent="1">
          <mxGeometry x="60" y="190" width="80" height="40" as="geometry" />
        </mxCell>
        <mxCell id="qgYlGUagVhwyhiTYEvKE-2" value="Secrets" style="rounded=0;whiteSpace=wrap;html=1;" vertex="1" parent="1">
          <mxGeometry x="480" y="280" width="80" height="40" as="geometry" />
        </mxCell>
        <mxCell id="qgYlGUagVhwyhiTYEvKE-3" value="configMaps" style="whiteSpace=wrap;html=1;" vertex="1" parent="1">
          <mxGeometry x="620" y="280" width="120" height="60" as="geometry" />
        </mxCell>
        <mxCell id="qgYlGUagVhwyhiTYEvKE-4" value="Strapi setup" style="text;html=1;align=center;verticalAlign=middle;resizable=0;points=[];autosize=1;strokeColor=none;fillColor=none;" vertex="1" parent="1">
          <mxGeometry x="55" y="460" width="90" height="30" as="geometry" />
        </mxCell>
        <mxCell id="qgYlGUagVhwyhiTYEvKE-6" value="p-hp-cl0" style="shape=cylinder3;whiteSpace=wrap;html=1;boundedLbl=1;backgroundOutline=1;size=15;" vertex="1" parent="1">
          <mxGeometry x="120" y="610" width="140" height="70" as="geometry" />
        </mxCell>
        <mxCell id="qgYlGUagVhwyhiTYEvKE-10" style="edgeStyle=orthogonalEdgeStyle;rounded=0;orthogonalLoop=1;jettySize=auto;html=1;fillColor=#d80073;strokeColor=#A50040;" edge="1" parent="1" source="qgYlGUagVhwyhiTYEvKE-7" target="qgYlGUagVhwyhiTYEvKE-9">
          <mxGeometry relative="1" as="geometry" />
        </mxCell>
        <mxCell id="qgYlGUagVhwyhiTYEvKE-7" value="Strapi" style="aspect=fixed;sketch=0;html=1;dashed=0;whitespace=wrap;verticalLabelPosition=bottom;verticalAlign=top;fillColor=#2875E2;strokeColor=#ffffff;points=[[0.005,0.63,0],[0.1,0.2,0],[0.9,0.2,0],[0.5,0,0],[0.995,0.63,0],[0.72,0.99,0],[0.5,1,0],[0.28,0.99,0]];shape=mxgraph.kubernetes.icon2;prIcon=pod" vertex="1" parent="1">
          <mxGeometry x="363" y="540" width="62.5" height="60" as="geometry" />
        </mxCell>
        <mxCell id="qgYlGUagVhwyhiTYEvKE-8" value="Postgress" style="aspect=fixed;sketch=0;html=1;dashed=0;whitespace=wrap;verticalLabelPosition=bottom;verticalAlign=top;fillColor=#2875E2;strokeColor=#ffffff;points=[[0.005,0.63,0],[0.1,0.2,0],[0.9,0.2,0],[0.5,0,0],[0.995,0.63,0],[0.72,0.99,0],[0.5,1,0],[0.28,0.99,0]];shape=mxgraph.kubernetes.icon2;prIcon=pod" vertex="1" parent="1">
          <mxGeometry x="370" y="700" width="62.5" height="60" as="geometry" />
        </mxCell>
        <mxCell id="qgYlGUagVhwyhiTYEvKE-9" value="" style="aspect=fixed;sketch=0;html=1;dashed=0;whitespace=wrap;verticalLabelPosition=bottom;verticalAlign=top;fillColor=#2875E2;strokeColor=#ffffff;points=[[0.005,0.63,0],[0.1,0.2,0],[0.9,0.2,0],[0.5,0,0],[0.995,0.63,0],[0.72,0.99,0],[0.5,1,0],[0.28,0.99,0]];shape=mxgraph.kubernetes.icon2;kubernetesLabel=1;prIcon=svc" vertex="1" parent="1">
          <mxGeometry x="500" y="610" width="83.33" height="80" as="geometry" />
        </mxCell>
        <mxCell id="qgYlGUagVhwyhiTYEvKE-11" style="edgeStyle=orthogonalEdgeStyle;rounded=0;orthogonalLoop=1;jettySize=auto;html=1;entryX=0.5;entryY=1;entryDx=0;entryDy=0;entryPerimeter=0;fillColor=#d80073;strokeColor=#A50040;" edge="1" parent="1" source="qgYlGUagVhwyhiTYEvKE-8" target="qgYlGUagVhwyhiTYEvKE-9">
          <mxGeometry relative="1" as="geometry" />
        </mxCell>
        <mxCell id="qgYlGUagVhwyhiTYEvKE-12" style="edgeStyle=orthogonalEdgeStyle;rounded=0;orthogonalLoop=1;jettySize=auto;html=1;entryX=0.5;entryY=1;entryDx=0;entryDy=0;entryPerimeter=0;endArrow=classic;endFill=1;" edge="1" parent="1" source="qgYlGUagVhwyhiTYEvKE-8" target="qgYlGUagVhwyhiTYEvKE-6">
          <mxGeometry relative="1" as="geometry" />
        </mxCell>
        <mxCell id="qgYlGUagVhwyhiTYEvKE-14" style="edgeStyle=orthogonalEdgeStyle;rounded=0;orthogonalLoop=1;jettySize=auto;html=1;entryX=0.005;entryY=0.63;entryDx=0;entryDy=0;entryPerimeter=0;" edge="1" parent="1" source="qgYlGUagVhwyhiTYEvKE-6" target="qgYlGUagVhwyhiTYEvKE-7">
          <mxGeometry relative="1" as="geometry" />
        </mxCell>
      </root>
    </mxGraphModel>
  </diagram>
</mxfile>
